<?xml version="1.0" standalone="no"?><!DOCTYPE svg PUBLIC "-//W3C//DTD SVG 1.1//EN" "http://www.w3.org/Graphics/SVG/1.1/DTD/svg11.dtd"><svg t="1652966679693" class="icon" viewBox="0 0 1024 1024" version="1.1" xmlns="http://www.w3.org/2000/svg" p-id="9926" xmlns:xlink="http://www.w3.org/1999/xlink" width="200" height="200"><defs><style type="text/css">@font-face { font-family: feedback-iconfont; src: url("//at.alicdn.com/t/font_1031158_u69w8yhxdu.woff2?t=1630033759944") format("woff2"), url("//at.alicdn.com/t/font_1031158_u69w8yhxdu.woff?t=1630033759944") format("woff"), url("//at.alicdn.com/t/font_1031158_u69w8yhxdu.ttf?t=1630033759944") format("truetype"); }
</style></defs><path d="M919.49 341.09a443.32 443.32 0 1 0 34.76 172.08 440.36 440.36 0 0 0-34.76-172.08zM764 764.93a356 356 0 1 1 104.25-251.76A353.72 353.72 0 0 1 764 764.93z" p-id="9927"></path><path d="M692 335.51a43 43 0 0 0-60.81 0L512.54 454.2 393.85 335.51A43 43 0 0 0 333 396.32L451.73 515 333 633.7a43 43 0 0 0 60.81 60.81l118.73-118.69 118.69 118.69A43 43 0 0 0 692 633.7L573.35 515 692 396.32a43 43 0 0 0 0-60.81z" p-id="9928"></path></svg>