<?xml version="1.0" standalone="no"?><!DOCTYPE svg PUBLIC "-//W3C//DTD SVG 1.1//EN" "http://www.w3.org/Graphics/SVG/1.1/DTD/svg11.dtd"><svg t="1653142939328" class="icon" viewBox="0 0 1024 1024" version="1.1" xmlns="http://www.w3.org/2000/svg" p-id="2763" xmlns:xlink="http://www.w3.org/1999/xlink" width="200" height="200"><defs><style type="text/css">@font-face { font-family: feedback-iconfont; src: url("//at.alicdn.com/t/font_1031158_u69w8yhxdu.woff2?t=1630033759944") format("woff2"), url("//at.alicdn.com/t/font_1031158_u69w8yhxdu.woff?t=1630033759944") format("woff"), url("//at.alicdn.com/t/font_1031158_u69w8yhxdu.ttf?t=1630033759944") format("truetype"); }
</style></defs><path d="M192 127.04h640v449.93H192z" fill="#C3D2FB" p-id="2764"></path><path d="M927 256v576H97V256h830zM570.84 542.21l109.13-166.18h-96.94L512 522.4l-69.16-146.37h-98.81L453.85 544h-74.07v36.82h90.84v26.97h-90.84v38.6h90.84v65.58h83.7v-65.58h89.9v-38.6h-89.9v-26.97h89.9v-38.61h-73.38z" fill="#386BF3" p-id="2765"></path><path d="M679.97 376.03L570.84 542.21h73.38v38.61h-89.9v26.97h89.9v38.6h-89.9v65.58h-83.7v-65.58h-90.84v-38.6h90.84v-26.97h-90.84V544h74.07L344.03 376.03h98.81L512 522.4l71.03-146.37z" fill="#3D4265" p-id="2766"></path></svg>