<?xml version="1.0" standalone="no"?><!DOCTYPE svg PUBLIC "-//W3C//DTD SVG 1.1//EN" "http://www.w3.org/Graphics/SVG/1.1/DTD/svg11.dtd"><svg t="1652938122578" class="icon" viewBox="0 0 1319 1024" version="1.1" xmlns="http://www.w3.org/2000/svg" p-id="8447" xmlns:xlink="http://www.w3.org/1999/xlink" width="257.6171875" height="200"><defs><style type="text/css">@font-face { font-family: feedback-iconfont; src: url("//at.alicdn.com/t/font_1031158_u69w8yhxdu.woff2?t=1630033759944") format("woff2"), url("//at.alicdn.com/t/font_1031158_u69w8yhxdu.woff?t=1630033759944") format("woff"), url("//at.alicdn.com/t/font_1031158_u69w8yhxdu.ttf?t=1630033759944") format("truetype"); }
</style></defs><path d="M1245.645022 582.18759L670.845599 125.598846c-5.910534-5.910534-13.298701-7.388167-17.731602-7.388168s-11.821068 1.477633-17.731602 7.388168l-2.955267 2.955267L76.836941 580.709957l-76.836941-88.658009L554.112554 39.896104C580.709957 14.776335 616.17316 0 653.113997 0s72.40404 13.298701 97.52381 39.896104l568.888889 450.678211-73.881674 91.613275z" p-id="8448"></path><path d="M663.457431 175.838384S181.748918 549.679654 181.748918 573.321789v406.349207c0 23.642136 19.209235 42.851371 42.851371 42.851371h325.079365V693.010101H768.369408v330.989899h325.079365c23.642136 0 42.851371-19.209235 42.851371-42.851371V574.799423c1.477633-25.119769-472.842713-398.961039-472.842713-398.961039z" p-id="8449"></path></svg>