<?xml version="1.0" standalone="no"?><!DOCTYPE svg PUBLIC "-//W3C//DTD SVG 1.1//EN" "http://www.w3.org/Graphics/SVG/1.1/DTD/svg11.dtd"><svg t="1652936911959" class="icon" viewBox="0 0 1024 1024" version="1.1" xmlns="http://www.w3.org/2000/svg" p-id="6024" xmlns:xlink="http://www.w3.org/1999/xlink" width="200" height="200"><defs><style type="text/css">@font-face { font-family: feedback-iconfont; src: url("//at.alicdn.com/t/font_1031158_u69w8yhxdu.woff2?t=1630033759944") format("woff2"), url("//at.alicdn.com/t/font_1031158_u69w8yhxdu.woff?t=1630033759944") format("woff"), url("//at.alicdn.com/t/font_1031158_u69w8yhxdu.ttf?t=1630033759944") format("truetype"); }
</style></defs><path d="M922 453.3h-70.9v-120H421.6V191H135.4v641.1h715.7V830h13.4L922 616.7v215.4c0 39.5-31.8 71.1-71.4 71.1H135.4c-39.6 0-71.4-31.7-71.4-71.1V191c0-39.5 31.8-71.1 71.4-71.1h286.2c39.6 0 71.4 31.7 71.4 71.1v71.1h357.6c39.6 0 71.4 31.7 71.4 71.1v120.1z" fill="#2D8DE5" p-id="6025"></path><path d="M268.3 381h627.9c35 0 63.2 33.2 63.2 74.5 0 7.1-0.9 13.8-2.6 20.4L853.3 903.3l-752-7.7 106-461c7.8-31.6 32.9-53.6 61-53.6z m-85.6 453.2h627.1l90.3-376.3H273l-90.3 376.3z" fill="#2D8DE5" p-id="6026"></path></svg>