<?xml version="1.0" standalone="no"?><!DOCTYPE svg PUBLIC "-//W3C//DTD SVG 1.1//EN" "http://www.w3.org/Graphics/SVG/1.1/DTD/svg11.dtd"><svg t="1652937736485" class="icon" viewBox="0 0 1024 1024" version="1.1" xmlns="http://www.w3.org/2000/svg" p-id="7606" xmlns:xlink="http://www.w3.org/1999/xlink" width="200" height="200"><defs><style type="text/css">@font-face { font-family: feedback-iconfont; src: url("//at.alicdn.com/t/font_1031158_u69w8yhxdu.woff2?t=1630033759944") format("woff2"), url("//at.alicdn.com/t/font_1031158_u69w8yhxdu.woff?t=1630033759944") format("woff"), url("//at.alicdn.com/t/font_1031158_u69w8yhxdu.ttf?t=1630033759944") format("truetype"); }
</style></defs><path d="M947.2 512C947.2 271.6416 752.3584 76.8 512 76.8S76.8 271.6416 76.8 512s194.8416 435.2 435.2 435.2 435.2-194.8416 435.2-435.2z m76.8 0c0 282.7648-229.2352 512-512 512S0 794.7648 0 512 229.2352 0 512 0s512 229.2352 512 512z m-552.5248-81.0496l133.7856 85.9776L471.4752 602.88V430.9504z m2.0864 261.9008l206.7328-132.864c31.36-20.1472 31.36-65.984 0-86.144L473.5616 341.0176c-34.0736-21.9008-78.8864 2.56-78.8864 43.072v265.7024c0 40.4992 44.8 64.9728 78.8864 43.072z" fill="#000000" p-id="7607"></path></svg>